<?xml version="1.0" encoding="utf-8"?>
<!-- Generator: Adobe Illustrator 21.1.0, SVG Export Plug-In . SVG Version: 6.00 Build 0)  -->
<svg version="1.1" id="mobile-logo" xmlns="http://www.w3.org/2000/svg" xmlns:xlink="http://www.w3.org/1999/xlink" x="0px" y="0px"
	 viewBox="0 0 34 34" style="enable-background:new 0 0 34 34;" xml:space="preserve" width="40" height="40">
<style type="text/css">
	.st0{fill:#FFFFFF;}
</style>
<g>
	<path class="st0" d="M17,1.4C8.4,1.4,1.4,8.4,1.4,17s7,15.6,15.6,15.6s15.6-7,15.6-15.6S25.6,1.4,17,1.4z M27.9,21.1
		c-0.2,0.5-0.5,0.9-0.8,1.3c-0.3,0.4-0.7,0.8-1.2,1.1c-0.5,0.3-1,0.4-1.6,0.4c-0.5,0-0.9-0.1-1.2-0.2c-0.3-0.1-0.6-0.3-0.7-0.6
		c-0.2-0.3-0.3-0.6-0.4-0.9c-0.1-0.4-0.1-0.8-0.1-1.2c0-0.5,0-1.1,0.1-1.8s0.1-1.3,0.2-2c0.1-0.7,0.2-1.3,0.2-1.9
		c0.1-0.6,0.1-1.1,0.1-1.5c0-0.4-0.1-0.7-0.2-0.9s-0.3-0.3-0.6-0.3c-0.3,0-0.5,0.1-0.8,0.4c-0.3,0.3-0.5,0.6-0.8,1.1
		c-0.3,0.5-0.5,1-0.7,1.6c-0.2,0.6-0.4,1.2-0.6,1.9c-0.2,0.7-0.3,1.3-0.4,2c-0.1,0.7-0.2,1.3-0.2,1.9c0,0.1,0,0.3,0,0.4
		c0,0.2,0,0.3,0,0.5c0,0.2,0,0.4,0,0.6c0,0.2,0,0.4,0,0.5H15c0-0.4-0.1-0.7-0.1-1c0-0.3,0-0.6,0-0.7c0-0.7,0-1.5,0.1-2.3
		s0.1-1.5,0.2-2.3c0.1-0.7,0.1-1.4,0.2-2c0.1-0.6,0.1-1.1,0.1-1.5c0-0.4-0.1-0.7-0.2-0.9s-0.3-0.3-0.6-0.3c-0.3,0-0.5,0.1-0.8,0.4
		c-0.3,0.3-0.6,0.7-0.8,1.1c-0.3,0.5-0.5,1-0.8,1.6c-0.2,0.6-0.5,1.3-0.6,1.9s-0.3,1.4-0.4,2c-0.1,0.7-0.2,1.3-0.2,1.9
		c0,0.1,0,0.3,0,0.4c0,0.2,0,0.7,0.1,1.5H7.9c0-0.2,0-0.4-0.1-0.7c0-0.3,0-0.5,0-0.6c0-0.4,0-0.8,0.1-1.4c0-0.5,0.1-1.1,0.2-1.7
		c0.1-0.6,0.1-1.2,0.2-1.8c0.1-0.6,0.2-1.2,0.2-1.7c0.1-0.5,0.1-1,0.2-1.5c0-0.4,0.1-0.7,0.1-1c0-0.3,0-0.5-0.1-0.6
		s-0.2-0.1-0.3-0.1c-0.2,0-0.4,0.2-0.6,0.5c-0.2,0.3-0.4,0.8-0.7,1.6l-1.4-0.4C5.8,13.9,5.9,13.5,6,13c0.2-0.5,0.4-0.9,0.7-1.3
		c0.3-0.4,0.6-0.8,1-1.1c0.4-0.3,0.9-0.4,1.5-0.4c0.3,0,0.6,0,0.8,0.1c0.3,0.1,0.5,0.2,0.7,0.4c0.2,0.2,0.4,0.4,0.5,0.7
		s0.2,0.7,0.2,1.2c0,0.2,0,0.3,0,0.5c0,0.1,0,0.3,0,0.4c0,0.1,0,0.2-0.1,0.4c0,0.1,0,0.3-0.1,0.4h0c0.3-0.8,0.6-1.4,1-1.9
		c0.4-0.5,0.8-0.9,1.2-1.2s0.8-0.5,1.2-0.6s0.8-0.2,1.2-0.2c1,0,1.7,0.4,2.1,1.1s0.6,1.7,0.4,2.9h0c0.3-0.8,0.6-1.4,1-1.9
		c0.4-0.5,0.7-0.9,1.1-1.2s0.8-0.5,1.2-0.6c0.4-0.1,0.8-0.2,1.1-0.2c0.6,0,1,0.1,1.4,0.3c0.4,0.2,0.7,0.5,1,0.8
		c0.3,0.4,0.4,0.8,0.6,1.3c0.1,0.5,0.2,1,0.2,1.7c0,0.5,0,1-0.1,1.6c-0.1,0.6-0.1,1.1-0.2,1.7c-0.1,0.6-0.2,1.1-0.2,1.7
		s-0.1,1.1-0.1,1.6c0,0.3,0,0.5,0.1,0.6c0.1,0.1,0.2,0.1,0.3,0.1c0.2,0,0.4-0.2,0.6-0.5c0.2-0.3,0.4-0.8,0.7-1.6l1.4,0.4
		C28.3,20.2,28.1,20.6,27.9,21.1z"/>
</g>
</svg>
